<?xml version="1.0" encoding="UTF-8"?>
<svg version="1.1" xmlns="http://www.w3.org/2000/svg" width="186" height="52">
<path d="M0 0 C4.99783437 -0.36020428 7.98018872 0.65610065 12.375 3 C13.43460938 3.556875 14.49421875 4.11375 15.5859375 4.6875 C16.38257812 5.120625 17.17921875 5.55375 18 6 C18 7.65 18 9.3 18 11 C16.68 11.33 15.36 11.66 14 12 C13.74575815 14.84023676 13.74575815 14.84023676 15 18 C17.93636536 20.14873036 21.19373908 21.56681053 24.5 23.0625 C26.26813631 23.87002546 28.02904581 24.69361964 29.78125 25.53515625 C30.56564453 25.889729 31.35003906 26.24430176 32.15820312 26.60961914 C34 28 34 28 34.76367188 30.65405273 C34.84166016 31.42821533 34.91964844 32.20237793 35 33 C32.45651725 33.97087214 30.64959754 34.22867401 28.05810547 33.31640625 C25.82236488 32.25994046 23.62662036 31.14999284 21.4375 30 C19.94182057 29.21831271 18.44065748 28.44700701 16.93359375 27.6875 C16.27415771 27.34074219 15.61472168 26.99398438 14.93530273 26.63671875 C12.51959351 25.84194524 11.32242153 25.98995551 9 27 C7.6954344 29.99615946 7.6954344 29.99615946 7 33 C0.53859012 32.56923934 -5.53217348 30.50962567 -11 27 C-11.8828125 24.95703125 -11.8828125 24.95703125 -12 23 C-11.67 22.34 -11.34 21.68 -11 21 C-10.01 21 -9.02 21 -8 21 C-7.91363281 20.43152344 -7.82726562 19.86304687 -7.73828125 19.27734375 C-6.79064245 14.06967731 -5.38771886 10.71071733 -2.109375 6.57421875 C-0.63567732 4.48302098 -0.229462 2.52408204 0 0 Z " fill="#C2BFE4" transform="translate(24,0)"/>
<path d="M0 0 C1.17111328 -0.020625 2.34222656 -0.04125 3.54882812 -0.0625 C4.66580078 -0.06765625 5.78277344 -0.0728125 6.93359375 -0.078125 C7.96411865 -0.0874707 8.99464355 -0.09681641 10.05639648 -0.10644531 C10.88341064 0.01118164 11.7104248 0.12880859 12.5625 0.25 C14.5625 3.25 14.5625 3.25 14.5625 7.25 C15.5525 7.58 16.5425 7.91 17.5625 8.25 C17.5625 10.56 17.5625 12.87 17.5625 15.25 C6.0125 15.25 -5.5375 15.25 -17.4375 15.25 C-17.4375 12.94 -17.4375 10.63 -17.4375 8.25 C-16.4475 7.92 -15.4575 7.59 -14.4375 7.25 C-14.293125 6.280625 -14.14875 5.31125 -14 4.3125 C-12.78526002 -2.30108433 -5.62482181 0.0246838 0 0 Z " fill="#9A4F39" transform="translate(17.4375,36.75)"/>
<path d="M0 0 C2.371875 -0.103125 4.74375 -0.20625 7.1875 -0.3125 C7.92508545 -0.35802002 8.6626709 -0.40354004 9.42260742 -0.45043945 C13.32499717 -0.53212351 14.89253512 -0.08339722 18 2.328125 C20 5 20 5 19.8125 8.0625 C19.544375 9.031875 19.27625 10.00125 19 11 C19 12.32 19 13.64 19 15 C19.33 15.33 19.66 15.66 20 16 C20.57981928 22.14608434 20.57981928 22.14608434 18.49609375 25.21484375 C15.00770266 27.70967118 11.85614857 27.43717014 7.75 27.25 C5.1925 27.1675 2.635 27.085 0 27 C0 18.09 0 9.18 0 0 Z M6 6 C6 7.65 6 9.3 6 11 C7.65 11 9.3 11 11 11 C11.66 9.68 12.32 8.36 13 7 C11.87465895 5.64381501 11.87465895 5.64381501 8.9375 5.9375 C7.968125 5.958125 6.99875 5.97875 6 6 Z M6 16 C6 17.65 6 19.3 6 21 C8.31 21 10.62 21 13 21 C12.67 19.35 12.34 17.7 12 16 C10.02 16 8.04 16 6 16 Z " fill="#FFFFFF" transform="translate(66,2)"/>
<path d="M0 0 C2.31 0 4.62 0 7 0 C7 9.24 7 18.48 7 28 C2.91625 28.12375 2.91625 28.12375 -1.25 28.25 C-2.10110352 28.28641602 -2.95220703 28.32283203 -3.82910156 28.36035156 C-9.41862037 28.44243355 -9.41862037 28.44243355 -12.484375 26.109375 C-15.54693842 21.84704447 -15.59438387 18.13409838 -15 13 C-13.5 9.5 -13.5 9.5 -11 7 C-7.59251819 5.92926955 -4.30123215 5.34938392 -1 7 C-0.67 4.69 -0.34 2.38 0 0 Z M-7.8125 13.625 C-9.35703138 16.07005046 -9.35703138 16.07005046 -8.1875 19.25 C-7.795625 20.1575 -7.40375 21.065 -7 22 C-4.58380177 22.25030977 -4.58380177 22.25030977 -2 22 C0.1387261 18.79191085 0.47730962 17.72301503 0 14 C-3.27589115 11.81607257 -4.72689242 10.8585932 -7.8125 13.625 Z " fill="#FFFFFF" transform="translate(112,1)"/>
<path d="M0 0 C1.98 0 3.96 0 6 0 C6 9.24 6 18.48 6 28 C3.33333333 28 0.66666667 28 -2 28 C-2.65613281 28.06960937 -3.31226563 28.13921875 -3.98828125 28.2109375 C-8.53583956 28.53194162 -10.3766351 28.49614757 -14.0625 25.5625 C-16.75831152 21.6260555 -16.77978922 17.59397565 -16 13 C-14.75114491 10.06519055 -13.73422661 8.57689234 -11.25 6.625 C-7.9712075 5.71422431 -5.29198995 6.3167568 -2 7 C-1.67 7.33 -1.34 7.66 -1 8 C-0.67 5.36 -0.34 2.72 0 0 Z M-9 14 C-9.41666667 17 -9.41666667 17 -9 20 C-7.17084359 22.23845015 -7.17084359 22.23845015 -4.5 22.3125 C-3.675 22.209375 -2.85 22.10625 -2 22 C0.29637779 19.24104365 0.29637779 19.24104365 -0.25 16.4375 C-0.83808052 13.84999433 -0.83808052 13.84999433 -3 12 C-6.18490007 11.7226499 -6.18490007 11.7226499 -9 14 Z " fill="#FFFFFF" transform="translate(137,1)"/>
<path d="M0 0 C0.7528125 0.06445312 1.505625 0.12890625 2.28125 0.1953125 C5.33852305 1.1318715 6.59080161 2.31522844 8.5 4.875 C9.06640625 7.96875 9.06640625 7.96875 9.0625 11.375 C9.08441406 12.4990625 9.10632813 13.623125 9.12890625 14.78125 C8.5 17.875 8.5 17.875 6.27734375 20.24609375 C2.01456378 22.74620521 -1.69788152 22.81334499 -6.5 21.875 C-9.32424288 19.68477082 -10.91508603 18.04482793 -12.5 14.875 C-13.07791538 7.8244324 -13.07791538 7.8244324 -10.75 4 C-7.28868544 0.73098069 -4.77708954 -0.50715677 0 0 Z M-5.5 7.875 C-5.91666667 10.875 -5.91666667 10.875 -5.5 13.875 C-3.66734675 16.14339983 -3.66734675 16.14339983 -0.9375 16.0625 C1.44689723 16.14503323 1.44689723 16.14503323 2.5 14.875 C2.75003964 11.41678598 2.75003964 11.41678598 2.5 7.875 C1.84 7.215 1.18 6.555 0.5 5.875 C-2.68490007 5.5976499 -2.68490007 5.5976499 -5.5 7.875 Z " fill="#FFFFFF" transform="translate(157.5,7.125)"/>
<path d="M0 0 C6.51819877 1.89536276 12.17814801 4.5178994 18 8 C16.92598892 10.91517292 16.22189824 12.77810176 14 15 C13.35232207 17.57061311 13.35232207 17.57061311 13 20 C6.53859012 19.56923934 0.46782652 17.50962567 -5 14 C-5.8828125 11.95703125 -5.8828125 11.95703125 -6 10 C-5.67 9.34 -5.34 8.68 -5 8 C-4.01 8 -3.02 8 -2 8 C-1.855625 6.865625 -1.71125 5.73125 -1.5625 4.5625 C-1 1 -1 1 0 0 Z " fill="#D5CFFC" transform="translate(18,13)"/>
<path d="M0 0 C0.99 0.33 1.98 0.66 3 1 C3.33 2.65 3.66 4.3 4 6 C4.99 5.34 5.98 4.68 7 4 C9.5625 4.1875 9.5625 4.1875 12 5 C14 8 14 8 13.6875 10.625 C13 13 13 13 12 14 C9.66705225 14.04241723 7.33297433 14.04092937 5 14 C4.34 14 3.68 14 3 14 C0 14 -3 14 -6 14 C-6.2475 13.195625 -6.495 12.39125 -6.75 11.5625 C-7.71114717 8.84688769 -7.71114717 8.84688769 -10 8.25 C-10.66 8.1675 -11.32 8.085 -12 8 C-12.66 7.67 -13.32 7.34 -14 7 C-13.67 8.32 -13.34 9.64 -13 11 C-11.35 10.67 -9.7 10.34 -8 10 C-8.33 11.32 -8.66 12.64 -9 14 C-12.375 14.125 -12.375 14.125 -16 14 C-18 12 -18 12 -18.3125 9.5625 C-18 7 -18 7 -16.875 5.125 C-14.07848948 3.44709369 -12.06309468 4.25124352 -9 5 C-8.34 4.01 -7.68 3.02 -7 2 C-5.68 2 -4.36 2 -3 2 C-3 2.66 -3 3.32 -3 4 C-2.34 3.67 -1.68 3.34 -1 3 C-0.67 2.01 -0.34 1.02 0 0 Z M-3 7 C-3 8.65 -3 10.3 -3 12 C-2.34 12 -1.68 12 -1 12 C-1 10.35 -1 8.7 -1 7 C-1.66 7 -2.32 7 -3 7 Z M8 7 C7.67 8.32 7.34 9.64 7 11 C7.99 11 8.98 11 10 11 C10.33 10.34 10.66 9.68 11 9 C10.67 8.34 10.34 7.68 10 7 C9.34 7 8.68 7 8 7 Z " fill="#9E9C9C" transform="translate(162,37)"/>
<path d="M0 0 C0.99 0.33 1.98 0.66 3 1 C3.33 2.65 3.66 4.3 4 6 C4.66 5.34 5.32 4.68 6 4 C7.32 4 8.64 4 10 4 C10.33 3.01 10.66 2.02 11 1 C11.99 1 12.98 1 14 1 C14 5.29 14 9.58 14 14 C5.66666667 14 -2.66666667 14 -11 14 C-11 10.04 -11 6.08 -11 2 C-3.25 1.875 -3.25 1.875 -1 3 C-0.67 2.01 -0.34 1.02 0 0 Z M-8 5 C-8 5.66 -8 6.32 -8 7 C-7.01 7 -6.02 7 -5 7 C-5 6.34 -5 5.68 -5 5 C-5.99 5 -6.98 5 -8 5 Z M8 7 C7.67 8.32 7.34 9.64 7 11 C7.99 11 8.98 11 10 11 C10.33 10.34 10.66 9.68 11 9 C10.67 8.34 10.34 7.68 10 7 C9.34 7 8.68 7 8 7 Z M-8 9 C-8 9.99 -8 10.98 -8 12 C-7.01 12 -6.02 12 -5 12 C-5 11.01 -5 10.02 -5 9 C-5.99 9 -6.98 9 -8 9 Z " fill="#9E9C9C" transform="translate(77,37)"/>
<path d="M0 0 C3.09244792 0.03255208 6.18489583 0.06510417 9.27734375 0.09765625 C9.27734375 5.04765625 9.27734375 9.99765625 9.27734375 15.09765625 C3.66734375 15.09765625 -1.94265625 15.09765625 -7.72265625 15.09765625 C-7.72265625 12.78765625 -7.72265625 10.47765625 -7.72265625 8.09765625 C-6.73265625 7.76765625 -5.74265625 7.43765625 -4.72265625 7.09765625 C-4.57828125 6.12828125 -4.43390625 5.15890625 -4.28515625 4.16015625 C-3.54439641 0.12713043 -3.54439641 0.12713043 0 0 Z " fill="#B15D45" transform="translate(7.72265625,36.90234375)"/>
<path d="M0 0 C4.88868475 1.48257158 9.29396633 3.47167914 13.8125 5.8125 C14.8324707 6.3084668 14.8324707 6.3084668 15.87304688 6.81445312 C20.78142734 9.3640705 20.78142734 9.3640705 21.94921875 12.76171875 C21.97435547 13.86966797 21.97435547 13.86966797 22 15 C18.03403308 16.10728079 16.03035089 15.95384772 12.35546875 14.12890625 C11.51435547 13.71962891 10.67324219 13.31035156 9.80664062 12.88867188 C8.94232422 12.45103516 8.07800781 12.01339844 7.1875 11.5625 C6.30384766 11.12873047 5.42019531 10.69496094 4.50976562 10.24804688 C2.33344395 9.17753189 0.16424939 8.09466141 -2 7 C-1.34 4.69 -0.68 2.38 0 0 Z " fill="#B05C45" transform="translate(37,18)"/>
<path d="M0 0 C2.31 0 4.62 0 7 0 C7 7.26 7 14.52 7 22 C4.69 22 2.38 22 0 22 C0 14.74 0 7.48 0 0 Z " fill="#FFFFFF" transform="translate(88,7)"/>
<path d="M0 0 C4.99783437 -0.36020428 7.98018872 0.65610065 12.375 3 C13.43460938 3.556875 14.49421875 4.11375 15.5859375 4.6875 C16.38257812 5.120625 17.17921875 5.55375 18 6 C18 7.65 18 9.3 18 11 C14.07871478 12.3058334 12.02168909 11.38030356 8.31640625 9.59960938 C7.63449219 9.25736328 6.95257812 8.91511719 6.25 8.5625 C5.55261719 8.22412109 4.85523438 7.88574219 4.13671875 7.53710938 C2.41931879 6.70193542 0.70894262 5.85234576 -1 5 C-0.67 3.35 -0.34 1.7 0 0 Z " fill="#6449E6" transform="translate(24,0)"/>
<path d="M0 0 C4.6889493 0.55619669 8.19924267 1.88182673 12.375 4.0625 C13.43460938 4.61035156 14.49421875 5.15820312 15.5859375 5.72265625 C16.38257812 6.14417969 17.17921875 6.56570312 18 7 C18 8.65 18 10.3 18 12 C11.53859012 11.56923934 5.46782652 9.50962567 0 6 C-0.8828125 3.95703125 -0.8828125 3.95703125 -1 2 C-0.67 1.34 -0.34 0.68 0 0 Z " fill="#6449E7" transform="translate(13,21)"/>
<path d="M0 0 C2.12438339 -0.08078641 4.2496323 -0.13909141 6.375 -0.1875 C7.55835938 -0.22230469 8.74171875 -0.25710937 9.9609375 -0.29296875 C11.46527344 -0.14794922 11.46527344 -0.14794922 13 0 C15 3 15 3 15 7 C10.05 7 5.1 7 0 7 C0 4.69 0 2.38 0 0 Z " fill="#7F3F2F" transform="translate(17,37)"/>
<path d="M0 0 C1.65322266 0.01740234 1.65322266 0.01740234 3.33984375 0.03515625 C4.99693359 0.04869141 4.99693359 0.04869141 6.6875 0.0625 C7.54214844 0.07410156 8.39679687 0.08570313 9.27734375 0.09765625 C9.27734375 2.40765625 9.27734375 4.71765625 9.27734375 7.09765625 C4.65734375 7.09765625 0.03734375 7.09765625 -4.72265625 7.09765625 C-3.56100121 0.12772601 -3.56100121 0.12772601 0 0 Z " fill="#994F39" transform="translate(7.72265625,36.90234375)"/>
<path d="M0 0 C0.99 0 1.98 0 3 0 C3 4.29 3 8.58 3 13 C-3.93359375 13.09765625 -3.93359375 13.09765625 -6 13 C-7 12 -7 12 -7.1875 8.5625 C-7 5 -7 5 -5 3 C-3.68 3 -2.36 3 -1 3 C-0.67 2.01 -0.34 1.02 0 0 Z M-3 6 C-3.33 7.32 -3.66 8.64 -4 10 C-3.01 10.495 -3.01 10.495 -2 11 C-1.34 10.67 -0.68 10.34 0 10 C-0.33 8.68 -0.66 7.36 -1 6 C-1.66 6 -2.32 6 -3 6 Z " fill="#9E9C9C" transform="translate(99,38)"/>
<path d="M0 0 C1.98 0 3.96 0 6 0 C6.33 1.32 6.66 2.64 7 4 C6.01 4.33 5.02 4.66 4 5 C5.65 6.98 7.3 8.96 9 11 C5.32589215 12.17571451 1.83070817 12.07366746 -2 12 C-3.6442351 7.06729471 -2.18615592 4.45975807 0 0 Z M1 7 C1 7.99 1 8.98 1 10 C1.66 9.34 2.32 8.68 3 8 C2.34 7.67 1.68 7.34 1 7 Z " fill="#9E9C9C" transform="translate(109,39)"/>
<path d="M0 0 C1.65 0.33 3.3 0.66 5 1 C6.14453125 2.7421875 6.14453125 2.7421875 6.8125 4.875 C7.16248047 5.92300781 7.16248047 5.92300781 7.51953125 6.9921875 C8 9 8 9 8 12 C5.33333333 11.33333333 2.66666667 10.66666667 0 10 C0 10.66 0 11.32 0 12 C-1.32 11.67 -2.64 11.34 -4 11 C-2.68 7.37 -1.36 3.74 0 0 Z M2 5 C3 7 3 7 3 7 Z " fill="#9E9C9C" transform="translate(125,39)"/>
<path d="M0 0 C0.99 0 1.98 0 3 0 C3.33 2.31 3.66 4.62 4 7 C4.33 7 4.66 7 5 7 C5.33 4.69 5.66 2.38 6 0 C6.99 0 7.98 0 9 0 C9 3.3 9 6.6 9 10 C2.84765625 10.09765625 2.84765625 10.09765625 1 10 C0 9 0 9 -0.09765625 6.93359375 C-0.08605469 6.10988281 -0.07445312 5.28617188 -0.0625 4.4375 C-0.05347656 3.61121094 -0.04445312 2.78492188 -0.03515625 1.93359375 C-0.02355469 1.29550781 -0.01195312 0.65742187 0 0 Z " fill="#9E9C9C" transform="translate(134,41)"/>
<path d="M0 0 C6.75 -0.125 6.75 -0.125 9 1 C9 3.97 9 6.94 9 10 C8.01 10 7.02 10 6 10 C6 7.69 6 5.38 6 3 C5.01 3 4.02 3 3 3 C3 5.31 3 7.62 3 10 C2.01 10 1.02 10 0 10 C0 6.7 0 3.4 0 0 Z " fill="#9E9C9C" transform="translate(177,41)"/>
<path d="M0 0 C6.51819877 1.89536276 12.17814801 4.5178994 18 8 C17.67 8.66 17.34 9.32 17 10 C12.3110507 9.44380331 8.80075733 8.11817327 4.625 5.9375 C3.56539062 5.38964844 2.50578125 4.84179688 1.4140625 4.27734375 C0.61742187 3.85582031 -0.17921875 3.43429688 -1 3 C-0.67 2.01 -0.34 1.02 0 0 Z " fill="#854232" transform="translate(41,24)"/>
<path d="M0 0 C2.31 0 4.62 0 7 0 C7 1.65 7 3.3 7 5 C4.125 5.625 4.125 5.625 1 6 C0.34 5.34 -0.32 4.68 -1 4 C-0.625 1.875 -0.625 1.875 0 0 Z " fill="#FFFFFF" transform="translate(88,0)"/>
<path d="M0 0 C1.98 0.66 3.96 1.32 6 2 C5.67 2.99 5.34 3.98 5 5 C2.03 4.505 2.03 4.505 -1 4 C-0.67 2.68 -0.34 1.36 0 0 Z " fill="#C16F5A" transform="translate(37,18)"/>
<path d="M0 0 C2.97 0.495 2.97 0.495 6 1 C5.01 2.32 4.02 3.64 3 5 C1.68 4.34 0.36 3.68 -1 3 C-0.67 2.01 -0.34 1.02 0 0 Z " fill="#9F533D" transform="translate(36,22)"/>
</svg>
